<?xml version="1.0" encoding="UTF-8" standalone="no"?>
<svg
   viewBox="0 0 512 512"
   fill="none"
   height="512"
   width="512"
   version="1.1"
   xmlns="http://www.w3.org/2000/svg">
  
  <!-- 1. FONDO DE LA APP (Sin Borde) -->
  <rect width="512" height="512" fill="#292524" rx="100" />

  <!-- 2. ICONO INTERIOR (Slate-50) -->
  <g transform="translate(128, 128) scale(0.5)"> 
      <!-- ESTRELLA PRINCIPAL: Borde reducido a 16 -->
      <path
         d="m 255.18555,25.626953 a 11.519654,11.519655 0 0 0 -10.3086,8.388672 L 208.42969,175.36133 a 46.078612,46.078618 0 0 1 -33.10742,33.08398 L 33.976562,244.91602 a 11.519654,11.519655 0 0 0 0,22.16406 L 175.32227,303.5293 a 46.078612,46.078618 0 0 1 33.10742,33.10742 l 36.42578,141.3457 a 11.519654,11.519655 0 0 0 22.18555,0 l 36.44921,-141.3457 a 46.078612,46.078618 0 0 1 33.10743,-33.10742 l 141.3457,-36.42578 a 11.519654,11.519655 0 0 0 0,-22.20899 L 336.59766,208.46875 A 46.078612,46.078618 0 0 1 303.49023,175.36133 L 267.06445,34.015625 a 11.519654,11.519655 0 0 0 -11.8789,-8.388672 z"
         style="fill:#FDFBF7;stroke:#FDFBF7;stroke-width:51;stroke-linejoin:round"
         id="path7" />
      
      <!-- Decoraciones: Líneas (Cruz) - Reducido a 56 -->
      <path
         d="M 422.40001,38.400026 V 140.79998"
         stroke="#FDFBF7"
         stroke-width="51"
         stroke-linecap="round"
         id="path2" />
      <path
         d="M 473.59997,89.600006 H 371.20005"
         stroke="#FDFBF7"
         stroke-width="51"
         stroke-linecap="round"
         id="path3" />
         
      <!-- Decoraciones: Círculo (Punto) - Borde reducido a 16 -->
      <circle
         fill="#FDFBF7"
         stroke="#FDFBF7"
         stroke-width="51"
         cx="102.4"
         cy="409.60001"
         r="30"
         id="path6" />
  </g>
</svg>